<svg width="60" height="60" viewBox="0 0 60 60" fill="none" xmlns="http://www.w3.org/2000/svg">
<rect width="60" height="60" rx="6" fill="#D263E4"/>
<path d="M41.1667 44.625V41.7083C41.1667 40.1612 40.5521 38.6775 39.4582 37.5835C38.3642 36.4896 36.8805 35.875 35.3334 35.875H23.6667C22.1196 35.875 20.6359 36.4896 19.5419 37.5835C18.448 38.6775 17.8334 40.1612 17.8334 41.7083V44.625M35.3334 24.2083C35.3334 27.43 32.7217 30.0417 29.5 30.0417C26.2784 30.0417 23.6667 27.43 23.6667 24.2083C23.6667 20.9867 26.2784 18.375 29.5 18.375C32.7217 18.375 35.3334 20.9867 35.3334 24.2083Z" stroke="white" stroke-width="4" stroke-linecap="round" stroke-linejoin="round"/>
</svg>
