<svg width="60" height="60" viewBox="0 0 60 60" fill="none" xmlns="http://www.w3.org/2000/svg">
<rect width="60" height="60" rx="6" fill="#509CDB"/>
<path d="M26.6562 15.6896L17.8771 21.4209C15.0625 23.2584 15.0625 27.3709 17.8771 29.2084L26.6562 34.9396C28.2312 35.975 30.8271 35.975 32.4021 34.9396L41.1375 29.2084C43.9375 27.3709 43.9375 23.2729 41.1375 21.4354L32.4021 15.7042C30.8271 14.6542 28.2312 14.6542 26.6562 15.6896Z" stroke="white" stroke-width="1.5" stroke-linecap="round" stroke-linejoin="round"/>
<path d="M20.2104 31.075L20.1958 37.9146C20.1958 39.7667 21.625 41.75 23.375 42.3333L28.0271 43.8792C28.8291 44.1417 30.1562 44.1417 30.9729 43.8792L35.625 42.3333C37.375 41.75 38.8041 39.7667 38.8041 37.9146V31.1479" stroke="white" stroke-width="1.5" stroke-linecap="round" stroke-linejoin="round"/>
<path d="M43.2084 33.875V25.125" stroke="white" stroke-width="1.5" stroke-linecap="round" stroke-linejoin="round"/>
</svg>
