<svg width="60" height="60" viewBox="0 0 60 60" fill="none" xmlns="http://www.w3.org/2000/svg">
<rect width="60" height="60" rx="6" fill="#50DBBA"/>
<path d="M26.3584 28.8522C26.2125 28.8376 26.0375 28.8376 25.8771 28.8522C22.4063 28.7355 19.65 25.8917 19.65 22.3917C19.65 18.8188 22.5375 15.9167 26.125 15.9167C29.6979 15.9167 32.6 18.8188 32.6 22.3917C32.5854 25.8917 29.8292 28.7355 26.3584 28.8522Z" stroke="white" stroke-width="1.5" stroke-linecap="round" stroke-linejoin="round"/>
<path d="M36.9313 18.8333C39.7604 18.8333 42.0354 21.1228 42.0354 23.9374C42.0354 26.6937 39.8479 28.9395 37.1209 29.0416C37.0042 29.027 36.8729 29.027 36.7417 29.0416" stroke="white" stroke-width="1.5" stroke-linecap="round" stroke-linejoin="round"/>
<path d="M19.0667 34.2333C15.5375 36.5958 15.5375 40.4458 19.0667 42.7937C23.0771 45.477 29.6542 45.477 33.6646 42.7937C37.1938 40.4312 37.1938 36.5812 33.6646 34.2333C29.6688 31.5645 23.0917 31.5645 19.0667 34.2333Z" stroke="white" stroke-width="1.5" stroke-linecap="round" stroke-linejoin="round"/>
<path d="M39.7458 42.1667C40.7958 41.948 41.7875 41.5251 42.6042 40.898C44.8792 39.1917 44.8792 36.3772 42.6042 34.6709C41.8021 34.0584 40.825 33.6501 39.7896 33.4167" stroke="white" stroke-width="1.5" stroke-linecap="round" stroke-linejoin="round"/>
</svg>
