<svg xmlns="http://www.w3.org/2000/svg" width="16" height="16" viewBox="0 0 16 16"><g transform="translate(0 -1036.362)"><path fill="#c2e4f8" d="m 7,1036.8622 0,2.0938 a 5.4999914,5.4999914 0 0 0 -2.1133,0.8789 l -1.4824,-1.4825 -1.4141,1.4141 1.4786,1.4785 a 5.4999914,5.4999914 0 0 0 -0.8731,2.1172 l -2.0957,0 0,2 2.0938,0 a 5.4999914,5.4999914 0 0 0 0.8789,2.1133 l -1.4825,1.4824 1.4141,1.4141 1.4785,-1.4785 A 5.4999914,5.4999914 0 0 0 7,1049.7665 l 0,2.0957 2,0 0,-2.0937 a 5.4999914,5.4999914 0 0 0 2.1133,-0.879 l 1.4824,1.4825 1.4141,-1.4141 -1.4785,-1.4785 a 5.4999914,5.4999914 0 0 0 0.873,-2.1172 l 2.0957,0 0,-2 -2.0937,0 a 5.4999914,5.4999914 0 0 0 -0.879,-2.1133 l 1.4825,-1.4824 -1.4141,-1.4141 -1.4785,1.4786 A 5.4999914,5.4999914 0 0 0 9,1038.9579 l 0,-2.0957 -2,0 z"/><path fill="#fff" d="m 11.499981,1044.3623 a 3.4999957,3.4999957 0 0 1 -3.4999953,3.5 3.4999957,3.4999957 0 0 1 -3.4999957,-3.5 3.4999957,3.4999957 0 0 1 3.4999957,-3.5 3.4999957,3.4999957 0 0 1 3.4999953,3.5 z"/><path fill="#249fe6" style="line-height:normal;text-indent:0;text-align:start;text-decoration-line:none;text-decoration-style:solid;text-decoration-color:#000;text-transform:none;block-progression:tb;isolation:auto;mix-blend-mode:normal" d="m 8,1040.3613 c -2.2032162,0 -4.0000027,1.7968 -4,4 -2.7e-6,2.2032 1.7967838,4 4,4 2.203216,0 4.000003,-1.7968 4,-4 3e-6,-2.2032 -1.796784,-4 -4,-4 z m 0,1 c 1.6627755,0 3.000002,1.3373 3,3 2e-6,1.6628 -1.3372245,3 -3,3 -1.6627757,0 -3.000002,-1.3372 -3,-3 -2e-6,-1.6627 1.3372243,-3 3,-3 z" color="#000" font-family="sans-serif" font-weight="400" overflow="visible" white-space="normal"/><path fill="#249fe6" style="line-height:normal;text-indent:0;text-align:start;text-decoration-line:none;text-decoration-style:solid;text-decoration-color:#000;text-transform:none;block-progression:tb;isolation:auto;mix-blend-mode:normal" d="m 7,1036.3613 a 0.50005,0.50005 0 0 0 -0.5,0.5 l 0,1.7735 c -0.5229954,0.1385 -1.0192632,0.3461 -1.4863281,0.6191 l -1.2558594,-1.2559 a 0.50005,0.50005 0 0 0 -0.7070313,0 l -1.4140624,1.4141 a 0.50005,0.50005 0 0 0 0,0.707 l 1.2519531,1.252 c -0.2722921,0.4684 -0.4779922,0.9661 -0.6152344,1.4902 l -1.7734375,0 a 0.50005,0.50005 0 0 0 -0.5,0.5 l 0,2 a 0.50005,0.50005 0 0 0 0.5,0.5 l 1.7714844,0 c 0.1385532,0.5232 0.3459532,1.0211 0.6191406,1.4883 l -1.2539062,1.2539 a 0.50005,0.50005 0 0 0 0,0.707 l 1.4140624,1.4141 a 0.50005,0.50005 0 0 0 0.7070313,0 l 1.25,-1.25 c 0.4687032,0.2725 0.9677026,0.478 1.4921875,0.6152 l 0,1.7715 a 0.50005,0.50005 0 0 0 0.5,0.5 l 2,0 a 0.50005,0.50005 0 0 0 0.5,-0.5 l 0,-1.7715 c 0.523585,-0.1387 1.020775,-0.3456 1.488281,-0.6191 l 1.253907,1.2539 a 0.50005,0.50005 0 0 0 0.707031,0 l 1.414062,-1.4141 a 0.50005,0.50005 0 0 0 0,-0.707 l -1.251953,-1.2519 c 0.272249,-0.4687 0.480127,-0.9659 0.617188,-1.4903 l 1.771484,0 a 0.50005,0.50005 0 0 0 0.5,-0.5 l 0,-2 a 0.50005,0.50005 0 0 0 -0.5,-0.5 l -1.771484,0 c -0.138704,-0.5236 -0.345613,-1.0207 -0.619141,-1.4883 l 1.253906,-1.2539 a 0.50005,0.50005 0 0 0 0,-0.707 l -1.414062,-1.4141 a 0.50005,0.50005 0 0 0 -0.707031,0 l -1.251954,1.252 c -0.468252,-0.272 -0.966332,-0.4781 -1.490234,-0.6152 l 0,-1.7735 a 0.50005,0.50005 0 0 0 -0.5,-0.5 l -2,0 z m 0.5,1 1,0 0,1.5957 a 0.50005,0.50005 0 0 0 0.4101562,0.4922 c 0.6901707,0.1266 1.3450468,0.3982 1.9238278,0.7949 a 0.50005,0.50005 0 0 0 0.636719,-0.06 l 1.125,-1.125 0.707031,0.707 -1.128906,1.1289 a 0.50005,0.50005 0 0 0 -0.05859,0.6387 c 0.398146,0.5773 0.670135,1.2306 0.798828,1.9199 a 0.50005,0.50005 0 0 0 0.492188,0.4082 l 1.59375,0 0,1 -1.595703,0 a 0.50005,0.50005 0 0 0 -0.492188,0.4102 c -0.126565,0.6901 -0.396297,1.347 -0.792968,1.9258 a 0.50005,0.50005 0 0 0 0.05859,0.6347 l 1.125,1.125 -0.707031,0.7071 -1.128906,-1.1289 a 0.50005,0.50005 0 0 0 -0.636719,-0.057 c -0.577278,0.3982 -1.2325218,0.6701 -1.9218749,0.7988 A 0.50005,0.50005 0 0 0 8.5,1049.7676 l 0,1.5937 -1,0 0,-1.5957 a 0.50005,0.50005 0 0 0 -0.4101562,-0.4902 c -0.6901636,-0.1266 -1.3450393,-0.3983 -1.9238282,-0.7949 a 0.50005,0.50005 0 0 0 -0.6367187,0.059 l -1.125,1.125 -0.7070313,-0.7071 1.1289063,-1.1289 a 0.50005,0.50005 0 0 0 0.058594,-0.6367 c -0.3981129,-0.5773 -0.6701617,-1.2325 -0.7988281,-1.9219 A 0.50005,0.50005 0 0 0 2.59375,1044.8613 l -1.59375,0 0,-1 1.5957031,0 a 0.50005,0.50005 0 0 0 0.4921875,-0.4082 c 0.1265926,-0.6901 0.3962655,-1.347 0.7929688,-1.9258 a 0.50005,0.50005 0 0 0 -0.058594,-0.6367 l -1.125,-1.125 0.7070313,-0.707 1.1289062,1.1289 a 0.50005,0.50005 0 0 0 0.6367188,0.059 c 0.5772859,-0.3981 1.232529,-0.6702 1.921875,-0.7988 A 0.50005,0.50005 0 0 0 7.5,1038.9551 l 0,-1.5938 z" color="#000" font-family="sans-serif" font-weight="400" overflow="visible" white-space="normal"/></g></svg>