<svg width="15" height="15" viewBox="0 0 15 15" fill="none" xmlns="http://www.w3.org/2000/svg">
<g opacity="0.8" clip-path="url(#clip0_485_5)">
<path d="M10.625 2.08743C11.5677 2.63172 12.3518 3.41276 12.8999 4.35325C13.4479 5.29373 13.7409 6.36104 13.7496 7.44952C13.7584 8.538 13.4828 9.6099 12.95 10.5591C12.4172 11.5083 11.6458 12.3019 10.712 12.8614C9.77828 13.4208 8.7146 13.7267 7.62631 13.7487C6.53802 13.7707 5.46284 13.5082 4.50722 12.987C3.5516 12.4658 2.74867 11.704 2.17792 10.7771C1.60716 9.85025 1.28838 8.79038 1.25313 7.70243L1.25 7.49993L1.25313 7.29743C1.28813 6.21805 1.60222 5.16616 2.16477 4.2443C2.72733 3.32245 3.51916 2.56209 4.46306 2.03736C5.40696 1.51263 6.47072 1.24143 7.55063 1.25021C8.63054 1.25898 9.68975 1.54743 10.625 2.08743ZM9.81687 5.80806C9.70925 5.70045 9.56607 5.6358 9.41418 5.62625C9.26228 5.6167 9.11213 5.6629 8.99188 5.75618L8.93313 5.80806L6.875 7.86556L6.06687 7.05806L6.00812 7.00618C5.88787 6.91297 5.73773 6.86682 5.58588 6.8764C5.43402 6.88598 5.29088 6.95063 5.18329 7.05822C5.0757 7.16581 5.01105 7.30896 5.00147 7.46081C4.99189 7.61266 5.03803 7.7628 5.13125 7.88306L5.18313 7.94181L6.43313 9.19181L6.49188 9.24368C6.60148 9.32872 6.73627 9.37488 6.875 9.37488C7.01373 9.37488 7.14852 9.32872 7.25812 9.24368L7.31687 9.19181L9.81687 6.69181L9.86875 6.63306C9.96203 6.5128 10.0082 6.36265 9.99868 6.21076C9.98913 6.05887 9.92449 5.91568 9.81687 5.80806Z" fill="#6312AE"/>
</g>
<defs>
<clipPath id="clip0_485_5">
<rect width="15" height="15" fill="white"/>
</clipPath>
</defs>
</svg>
