<svg width="13" height="13" viewBox="0 0 13 13" fill="none" xmlns="http://www.w3.org/2000/svg">
<g clip-path="url(#clip0_376_127)">
<path d="M9.2085 1.80915C10.0255 2.28086 10.7051 2.95777 11.1801 3.77285C11.655 4.58794 11.9089 5.51294 11.9165 6.45629C11.9241 7.39964 11.6853 8.32862 11.2235 9.15128C10.7618 9.97393 10.0932 10.6617 9.28392 11.1466C8.47467 11.6314 7.55282 11.8965 6.60963 11.9156C5.66645 11.9347 4.73463 11.7071 3.90642 11.2554C3.07822 10.8037 2.38234 10.1435 1.88769 9.34022C1.39304 8.53692 1.11676 7.61837 1.0862 6.67548L1.0835 6.49998L1.0862 6.32448C1.11654 5.38902 1.38875 4.47738 1.8763 3.67844C2.36385 2.8795 3.0501 2.22052 3.86815 1.76575C4.68619 1.31099 5.60812 1.07595 6.54404 1.08355C7.47997 1.09116 8.39795 1.34115 9.2085 1.80915ZM8.50812 5.03369C8.41485 4.94043 8.29075 4.8844 8.15912 4.87613C8.02748 4.86785 7.89734 4.90789 7.79312 4.98873L7.7422 5.03369L5.9585 6.81686L5.25812 6.11702L5.2072 6.07207C5.10298 5.99128 4.97286 5.95129 4.84126 5.95959C4.70965 5.96789 4.58559 6.02392 4.49235 6.11717C4.3991 6.21041 4.34307 6.33447 4.33477 6.46608C4.32647 6.59768 4.36646 6.7278 4.44725 6.83202L4.4922 6.88294L5.57554 7.96627L5.62645 8.01123C5.72145 8.08493 5.83826 8.12494 5.9585 8.12494C6.07873 8.12494 6.19554 8.08493 6.29054 8.01123L6.34145 7.96627L8.50812 5.79961L8.55308 5.74869C8.63392 5.64447 8.67396 5.51434 8.66569 5.3827C8.65741 5.25106 8.60138 5.12696 8.50812 5.03369Z" fill="#267933"/>
</g>
<defs>
<clipPath id="clip0_376_127">
<rect width="13" height="13" fill="white"/>
</clipPath>
</defs>
</svg>
